# Low-Poly Sphere .obj
v 0.000000 1.000000 0.000000
v 0.000000 -1.000000 0.000000
v 0.894427 0.447214 0.000000
v 0.276393 0.447214 0.850651
v -0.723607 0.447214 0.525731
v -0.723607 0.447214 -0.525731
v 0.276393 0.447214 -0.850651
v 0.723607 -0.447214 0.525731
v -0.276393 -0.447214 0.850651
v -0.894427 -0.447214 0.000000
v -0.276393 -0.447214 -0.850651
v 0.723607 -0.447214 -0.525731

f 1 3 4
f 1 4 5
f 1 5 6
f 1 6 7
f 1 7 3
f 2 8 9
f 2 9 10
f 2 10 11
f 2 11 12
f 2 12 8
f 3 8 12
f 3 12 7
f 4 9 8
f 4 8 3
f 5 10 9
f 5 9 4
f 6 11 10
f 6 10 5
f 7 12 11
f 7 11 6